<mxfile host="app.diagrams.net" agent="Mozilla/5.0 (Windows NT 10.0; Win64; x64; rv:132.0) Gecko/20100101 Firefox/132.0" version="24.8.3">
  <diagram name="Page-1" id="p-pGFZoF7FwJlfgUO930">
    <mxGraphModel dx="1687" dy="853" grid="1" gridSize="10" guides="1" tooltips="1" connect="1" arrows="1" fold="1" page="1" pageScale="1" pageWidth="1100" pageHeight="850" math="0" shadow="0">
      <root>
        <mxCell id="0" />
        <mxCell id="1" parent="0" />
        <mxCell id="pBMPPKb8KP0F6P0kaboP-3" value="" style="edgeStyle=orthogonalEdgeStyle;rounded=0;orthogonalLoop=1;jettySize=auto;html=1;curved=0;" edge="1" parent="1" source="pBMPPKb8KP0F6P0kaboP-1" target="pBMPPKb8KP0F6P0kaboP-2">
          <mxGeometry relative="1" as="geometry" />
        </mxCell>
        <mxCell id="pBMPPKb8KP0F6P0kaboP-1" value="" style="html=1;points=[[0,0,0,0,5],[0,1,0,0,-5],[1,0,0,0,5],[1,1,0,0,-5]];perimeter=orthogonalPerimeter;outlineConnect=0;targetShapes=umlLifeline;portConstraint=eastwest;newEdgeStyle={&quot;curved&quot;:0,&quot;rounded&quot;:0};fillColor=#000000;" vertex="1" parent="1">
          <mxGeometry x="270" y="365" width="10" height="80" as="geometry" />
        </mxCell>
        <mxCell id="pBMPPKb8KP0F6P0kaboP-22" style="edgeStyle=orthogonalEdgeStyle;rounded=0;orthogonalLoop=1;jettySize=auto;html=1;" edge="1" parent="1" source="pBMPPKb8KP0F6P0kaboP-2" target="pBMPPKb8KP0F6P0kaboP-16">
          <mxGeometry relative="1" as="geometry">
            <Array as="points">
              <mxPoint x="490" y="420" />
              <mxPoint x="490" y="720" />
            </Array>
          </mxGeometry>
        </mxCell>
        <mxCell id="pBMPPKb8KP0F6P0kaboP-23" style="edgeStyle=orthogonalEdgeStyle;rounded=0;orthogonalLoop=1;jettySize=auto;html=1;" edge="1" parent="1" source="pBMPPKb8KP0F6P0kaboP-2" target="pBMPPKb8KP0F6P0kaboP-89">
          <mxGeometry relative="1" as="geometry">
            <mxPoint x="680" y="260" as="targetPoint" />
            <Array as="points">
              <mxPoint x="490" y="390" />
              <mxPoint x="490" y="250" />
            </Array>
          </mxGeometry>
        </mxCell>
        <mxCell id="pBMPPKb8KP0F6P0kaboP-2" value="" style="ellipse;whiteSpace=wrap;html=1;aspect=fixed;" vertex="1" parent="1">
          <mxGeometry x="340" y="365" width="80" height="80" as="geometry" />
        </mxCell>
        <mxCell id="pBMPPKb8KP0F6P0kaboP-15" value="" style="edgeStyle=orthogonalEdgeStyle;rounded=0;orthogonalLoop=1;jettySize=auto;html=1;curved=0;" edge="1" source="pBMPPKb8KP0F6P0kaboP-16" parent="1">
          <mxGeometry relative="1" as="geometry">
            <mxPoint x="739.9999999999998" y="720" as="targetPoint" />
          </mxGeometry>
        </mxCell>
        <mxCell id="pBMPPKb8KP0F6P0kaboP-47" value="X3" style="edgeLabel;html=1;align=center;verticalAlign=middle;resizable=0;points=[];" vertex="1" connectable="0" parent="pBMPPKb8KP0F6P0kaboP-15">
          <mxGeometry x="-0.3356" y="-1" relative="1" as="geometry">
            <mxPoint y="-1" as="offset" />
          </mxGeometry>
        </mxCell>
        <mxCell id="pBMPPKb8KP0F6P0kaboP-16" value="" style="html=1;points=[[0,0,0,0,5],[0,1,0,0,-5],[1,0,0,0,5],[1,1,0,0,-5]];perimeter=orthogonalPerimeter;outlineConnect=0;targetShapes=umlLifeline;portConstraint=eastwest;newEdgeStyle={&quot;curved&quot;:0,&quot;rounded&quot;:0};fillColor=#000000;" vertex="1" parent="1">
          <mxGeometry x="660" y="680" width="10" height="80" as="geometry" />
        </mxCell>
        <mxCell id="pBMPPKb8KP0F6P0kaboP-19" value="" style="ellipse;whiteSpace=wrap;html=1;aspect=fixed;" vertex="1" parent="1">
          <mxGeometry x="740" y="490" width="80" height="80" as="geometry" />
        </mxCell>
        <mxCell id="pBMPPKb8KP0F6P0kaboP-20" value="" style="ellipse;whiteSpace=wrap;html=1;aspect=fixed;fillColor=#000000;" vertex="1" parent="1">
          <mxGeometry x="765" y="515" width="30" height="30" as="geometry" />
        </mxCell>
        <mxCell id="pBMPPKb8KP0F6P0kaboP-21" style="edgeStyle=orthogonalEdgeStyle;rounded=0;orthogonalLoop=1;jettySize=auto;html=1;entryX=0;entryY=0;entryDx=0;entryDy=5;entryPerimeter=0;exitX=0;exitY=0.5;exitDx=0;exitDy=0;" edge="1" source="pBMPPKb8KP0F6P0kaboP-19" target="pBMPPKb8KP0F6P0kaboP-16" parent="1">
          <mxGeometry relative="1" as="geometry">
            <Array as="points">
              <mxPoint x="640" y="530" />
              <mxPoint x="640" y="685" />
            </Array>
          </mxGeometry>
        </mxCell>
        <mxCell id="pBMPPKb8KP0F6P0kaboP-50" value="" style="edgeStyle=orthogonalEdgeStyle;rounded=0;orthogonalLoop=1;jettySize=auto;html=1;" edge="1" parent="1" source="pBMPPKb8KP0F6P0kaboP-48" target="pBMPPKb8KP0F6P0kaboP-49">
          <mxGeometry relative="1" as="geometry" />
        </mxCell>
        <mxCell id="pBMPPKb8KP0F6P0kaboP-48" value="" style="ellipse;whiteSpace=wrap;html=1;aspect=fixed;" vertex="1" parent="1">
          <mxGeometry x="740" y="680" width="80" height="80" as="geometry" />
        </mxCell>
        <mxCell id="pBMPPKb8KP0F6P0kaboP-52" value="" style="edgeStyle=orthogonalEdgeStyle;rounded=0;orthogonalLoop=1;jettySize=auto;html=1;curved=0;" edge="1" parent="1" source="pBMPPKb8KP0F6P0kaboP-49" target="pBMPPKb8KP0F6P0kaboP-51">
          <mxGeometry relative="1" as="geometry" />
        </mxCell>
        <mxCell id="pBMPPKb8KP0F6P0kaboP-49" value="" style="html=1;points=[[0,0,0,0,5],[0,1,0,0,-5],[1,0,0,0,5],[1,1,0,0,-5]];perimeter=orthogonalPerimeter;outlineConnect=0;targetShapes=umlLifeline;portConstraint=eastwest;newEdgeStyle={&quot;curved&quot;:0,&quot;rounded&quot;:0};fillColor=#000000;" vertex="1" parent="1">
          <mxGeometry x="880" y="680" width="10" height="80" as="geometry" />
        </mxCell>
        <mxCell id="pBMPPKb8KP0F6P0kaboP-54" value="" style="edgeStyle=orthogonalEdgeStyle;rounded=0;orthogonalLoop=1;jettySize=auto;html=1;" edge="1" parent="1" source="pBMPPKb8KP0F6P0kaboP-51" target="pBMPPKb8KP0F6P0kaboP-53">
          <mxGeometry relative="1" as="geometry" />
        </mxCell>
        <mxCell id="pBMPPKb8KP0F6P0kaboP-51" value="" style="ellipse;whiteSpace=wrap;html=1;aspect=fixed;" vertex="1" parent="1">
          <mxGeometry x="950" y="680" width="80" height="80" as="geometry" />
        </mxCell>
        <mxCell id="pBMPPKb8KP0F6P0kaboP-57" value="" style="edgeStyle=orthogonalEdgeStyle;rounded=0;orthogonalLoop=1;jettySize=auto;html=1;curved=0;" edge="1" parent="1" source="pBMPPKb8KP0F6P0kaboP-53" target="pBMPPKb8KP0F6P0kaboP-56">
          <mxGeometry relative="1" as="geometry" />
        </mxCell>
        <mxCell id="pBMPPKb8KP0F6P0kaboP-63" style="edgeStyle=orthogonalEdgeStyle;rounded=0;orthogonalLoop=1;jettySize=auto;html=1;curved=0;entryX=1;entryY=0.5;entryDx=0;entryDy=0;" edge="1" parent="1" source="pBMPPKb8KP0F6P0kaboP-53" target="pBMPPKb8KP0F6P0kaboP-61">
          <mxGeometry relative="1" as="geometry">
            <Array as="points">
              <mxPoint x="1130" y="690" />
              <mxPoint x="1130" y="610" />
            </Array>
          </mxGeometry>
        </mxCell>
        <mxCell id="pBMPPKb8KP0F6P0kaboP-53" value="" style="html=1;points=[[0,0,0,0,5],[0,1,0,0,-5],[1,0,0,0,5],[1,1,0,0,-5]];perimeter=orthogonalPerimeter;outlineConnect=0;targetShapes=umlLifeline;portConstraint=eastwest;newEdgeStyle={&quot;curved&quot;:0,&quot;rounded&quot;:0};fillColor=#000000;" vertex="1" parent="1">
          <mxGeometry x="1090" y="680" width="10" height="80" as="geometry" />
        </mxCell>
        <mxCell id="pBMPPKb8KP0F6P0kaboP-59" value="" style="edgeStyle=orthogonalEdgeStyle;rounded=0;orthogonalLoop=1;jettySize=auto;html=1;" edge="1" parent="1" source="pBMPPKb8KP0F6P0kaboP-56" target="pBMPPKb8KP0F6P0kaboP-58">
          <mxGeometry relative="1" as="geometry" />
        </mxCell>
        <mxCell id="pBMPPKb8KP0F6P0kaboP-60" value="X3" style="edgeLabel;html=1;align=center;verticalAlign=middle;resizable=0;points=[];" vertex="1" connectable="0" parent="pBMPPKb8KP0F6P0kaboP-59">
          <mxGeometry x="-0.2425" y="-1" relative="1" as="geometry">
            <mxPoint y="-1" as="offset" />
          </mxGeometry>
        </mxCell>
        <mxCell id="pBMPPKb8KP0F6P0kaboP-56" value="" style="ellipse;whiteSpace=wrap;html=1;aspect=fixed;" vertex="1" parent="1">
          <mxGeometry x="1170" y="680" width="80" height="80" as="geometry" />
        </mxCell>
        <mxCell id="pBMPPKb8KP0F6P0kaboP-65" style="edgeStyle=orthogonalEdgeStyle;rounded=0;orthogonalLoop=1;jettySize=auto;html=1;curved=0;entryX=1;entryY=0.5;entryDx=0;entryDy=0;exitX=1;exitY=0;exitDx=0;exitDy=5;exitPerimeter=0;" edge="1" parent="1" source="pBMPPKb8KP0F6P0kaboP-69" target="pBMPPKb8KP0F6P0kaboP-19">
          <mxGeometry relative="1" as="geometry">
            <Array as="points">
              <mxPoint x="1540" y="690" />
              <mxPoint x="1560" y="690" />
              <mxPoint x="1560" y="530" />
            </Array>
          </mxGeometry>
        </mxCell>
        <mxCell id="pBMPPKb8KP0F6P0kaboP-67" value="" style="edgeStyle=orthogonalEdgeStyle;rounded=0;orthogonalLoop=1;jettySize=auto;html=1;curved=0;" edge="1" parent="1" source="pBMPPKb8KP0F6P0kaboP-58" target="pBMPPKb8KP0F6P0kaboP-66">
          <mxGeometry relative="1" as="geometry" />
        </mxCell>
        <mxCell id="pBMPPKb8KP0F6P0kaboP-68" value="X3" style="edgeLabel;html=1;align=center;verticalAlign=middle;resizable=0;points=[];" vertex="1" connectable="0" parent="pBMPPKb8KP0F6P0kaboP-67">
          <mxGeometry x="-0.1044" y="1" relative="1" as="geometry">
            <mxPoint as="offset" />
          </mxGeometry>
        </mxCell>
        <mxCell id="pBMPPKb8KP0F6P0kaboP-58" value="" style="html=1;points=[[0,0,0,0,5],[0,1,0,0,-5],[1,0,0,0,5],[1,1,0,0,-5]];perimeter=orthogonalPerimeter;outlineConnect=0;targetShapes=umlLifeline;portConstraint=eastwest;newEdgeStyle={&quot;curved&quot;:0,&quot;rounded&quot;:0};fillColor=#000000;" vertex="1" parent="1">
          <mxGeometry x="1310" y="680" width="10" height="80" as="geometry" />
        </mxCell>
        <mxCell id="pBMPPKb8KP0F6P0kaboP-61" value="" style="ellipse;whiteSpace=wrap;html=1;aspect=fixed;" vertex="1" parent="1">
          <mxGeometry x="950" y="570" width="80" height="80" as="geometry" />
        </mxCell>
        <mxCell id="pBMPPKb8KP0F6P0kaboP-62" value="" style="ellipse;whiteSpace=wrap;html=1;aspect=fixed;fillColor=#000000;" vertex="1" parent="1">
          <mxGeometry x="975" y="595" width="30" height="30" as="geometry" />
        </mxCell>
        <mxCell id="pBMPPKb8KP0F6P0kaboP-64" style="edgeStyle=orthogonalEdgeStyle;rounded=0;orthogonalLoop=1;jettySize=auto;html=1;entryX=0;entryY=0;entryDx=0;entryDy=5;entryPerimeter=0;" edge="1" parent="1" target="pBMPPKb8KP0F6P0kaboP-49">
          <mxGeometry relative="1" as="geometry">
            <mxPoint x="949.9999999999998" y="610" as="sourcePoint" />
            <mxPoint x="839.9999999999998" y="645" as="targetPoint" />
            <Array as="points">
              <mxPoint x="860" y="610" />
              <mxPoint x="860" y="685" />
            </Array>
          </mxGeometry>
        </mxCell>
        <mxCell id="pBMPPKb8KP0F6P0kaboP-70" value="" style="edgeStyle=orthogonalEdgeStyle;rounded=0;orthogonalLoop=1;jettySize=auto;html=1;" edge="1" parent="1" source="pBMPPKb8KP0F6P0kaboP-66" target="pBMPPKb8KP0F6P0kaboP-69">
          <mxGeometry relative="1" as="geometry" />
        </mxCell>
        <mxCell id="pBMPPKb8KP0F6P0kaboP-66" value="" style="ellipse;whiteSpace=wrap;html=1;aspect=fixed;" vertex="1" parent="1">
          <mxGeometry x="1390" y="680" width="80" height="80" as="geometry" />
        </mxCell>
        <mxCell id="pBMPPKb8KP0F6P0kaboP-72" value="" style="edgeStyle=orthogonalEdgeStyle;rounded=0;orthogonalLoop=1;jettySize=auto;html=1;curved=0;" edge="1" parent="1" source="pBMPPKb8KP0F6P0kaboP-69" target="pBMPPKb8KP0F6P0kaboP-71">
          <mxGeometry relative="1" as="geometry" />
        </mxCell>
        <mxCell id="pBMPPKb8KP0F6P0kaboP-69" value="" style="html=1;points=[[0,0,0,0,5],[0,1,0,0,-5],[1,0,0,0,5],[1,1,0,0,-5]];perimeter=orthogonalPerimeter;outlineConnect=0;targetShapes=umlLifeline;portConstraint=eastwest;newEdgeStyle={&quot;curved&quot;:0,&quot;rounded&quot;:0};fillColor=#000000;" vertex="1" parent="1">
          <mxGeometry x="1530" y="680" width="10" height="80" as="geometry" />
        </mxCell>
        <mxCell id="pBMPPKb8KP0F6P0kaboP-74" value="" style="edgeStyle=orthogonalEdgeStyle;rounded=0;orthogonalLoop=1;jettySize=auto;html=1;" edge="1" parent="1" source="pBMPPKb8KP0F6P0kaboP-71" target="pBMPPKb8KP0F6P0kaboP-73">
          <mxGeometry relative="1" as="geometry" />
        </mxCell>
        <mxCell id="pBMPPKb8KP0F6P0kaboP-71" value="" style="ellipse;whiteSpace=wrap;html=1;aspect=fixed;" vertex="1" parent="1">
          <mxGeometry x="1775" y="435" width="80" height="80" as="geometry" />
        </mxCell>
        <mxCell id="pBMPPKb8KP0F6P0kaboP-73" value="" style="html=1;points=[[0,0,0,0,5],[0,1,0,0,-5],[1,0,0,0,5],[1,1,0,0,-5]];perimeter=orthogonalPerimeter;outlineConnect=0;targetShapes=umlLifeline;portConstraint=eastwest;newEdgeStyle={&quot;curved&quot;:0,&quot;rounded&quot;:0};fillColor=#000000;" vertex="1" parent="1">
          <mxGeometry x="1935" y="435" width="10" height="80" as="geometry" />
        </mxCell>
        <mxCell id="pBMPPKb8KP0F6P0kaboP-75" value="&lt;div&gt;Ingresun pedido de&lt;br&gt;&lt;/div&gt;&lt;div&gt;documento a&lt;/div&gt;&lt;div&gt;fotocopiadora 2&lt;br&gt;&lt;/div&gt;" style="text;html=1;align=center;verticalAlign=middle;resizable=0;points=[];autosize=1;strokeColor=none;fillColor=none;" vertex="1" parent="1">
          <mxGeometry x="600" y="750" width="130" height="60" as="geometry" />
        </mxCell>
        <mxCell id="pBMPPKb8KP0F6P0kaboP-76" value="&lt;div&gt;Pedidos&lt;/div&gt;&lt;div&gt;solicitados&lt;/div&gt;&lt;div&gt;en fotocopiadora 2&lt;br&gt;&lt;/div&gt;" style="text;html=1;align=center;verticalAlign=middle;resizable=0;points=[];autosize=1;strokeColor=none;fillColor=none;" vertex="1" parent="1">
          <mxGeometry x="715" y="760" width="130" height="60" as="geometry" />
        </mxCell>
        <mxCell id="pBMPPKb8KP0F6P0kaboP-77" value="&lt;div&gt;Inicia impresion&lt;/div&gt;&lt;div&gt;en fotocopiadora&lt;/div&gt;&lt;div&gt;2&lt;br&gt;&lt;/div&gt;" style="text;html=1;align=center;verticalAlign=middle;resizable=0;points=[];autosize=1;strokeColor=none;fillColor=none;" vertex="1" parent="1">
          <mxGeometry x="825" y="760" width="120" height="60" as="geometry" />
        </mxCell>
        <mxCell id="pBMPPKb8KP0F6P0kaboP-78" value="&lt;div&gt;Imprimiendo en&lt;/div&gt;&lt;div&gt;fotocopiadora 2&lt;br&gt;&lt;/div&gt;" style="text;html=1;align=center;verticalAlign=middle;resizable=0;points=[];autosize=1;strokeColor=none;fillColor=none;" vertex="1" parent="1">
          <mxGeometry x="935" y="760" width="110" height="40" as="geometry" />
        </mxCell>
        <mxCell id="pBMPPKb8KP0F6P0kaboP-79" value="&lt;div&gt;Copia en FP 2&lt;br&gt;&lt;/div&gt;&lt;div&gt;completada&lt;br&gt;&lt;/div&gt;" style="text;html=1;align=center;verticalAlign=middle;resizable=0;points=[];autosize=1;strokeColor=none;fillColor=none;" vertex="1" parent="1">
          <mxGeometry x="1045" y="760" width="100" height="40" as="geometry" />
        </mxCell>
        <mxCell id="pBMPPKb8KP0F6P0kaboP-80" value="Fotocopiadora 2 disponible" style="text;html=1;align=center;verticalAlign=middle;resizable=0;points=[];autosize=1;strokeColor=none;fillColor=none;" vertex="1" parent="1">
          <mxGeometry x="905" y="540" width="170" height="30" as="geometry" />
        </mxCell>
        <mxCell id="pBMPPKb8KP0F6P0kaboP-81" value="&lt;div&gt;Deposito de copias&lt;/div&gt;&lt;div&gt;de FP 2&lt;br&gt;&lt;/div&gt;" style="text;html=1;align=center;verticalAlign=middle;resizable=0;points=[];autosize=1;strokeColor=none;fillColor=none;" vertex="1" parent="1">
          <mxGeometry x="1145" y="760" width="130" height="40" as="geometry" />
        </mxCell>
        <mxCell id="pBMPPKb8KP0F6P0kaboP-82" value="&lt;div&gt;Inicio de&lt;/div&gt;&lt;div&gt;empaquetamiento en&lt;/div&gt;&lt;div&gt;oficina 2&lt;br&gt;&lt;/div&gt;" style="text;html=1;align=center;verticalAlign=middle;resizable=0;points=[];autosize=1;strokeColor=none;fillColor=none;" vertex="1" parent="1">
          <mxGeometry x="1245" y="630" width="140" height="60" as="geometry" />
        </mxCell>
        <mxCell id="pBMPPKb8KP0F6P0kaboP-83" value="&lt;div&gt;Empaquetando en&lt;/div&gt;&lt;div&gt;oficina 2&lt;br&gt;&lt;/div&gt;" style="text;html=1;align=center;verticalAlign=middle;resizable=0;points=[];autosize=1;strokeColor=none;fillColor=none;" vertex="1" parent="1">
          <mxGeometry x="1365" y="760" width="130" height="40" as="geometry" />
        </mxCell>
        <mxCell id="pBMPPKb8KP0F6P0kaboP-84" value="&lt;div&gt;Fin de&lt;/div&gt;&lt;div&gt;empaquetamiento en&lt;/div&gt;&lt;div&gt;oficina 2&lt;br&gt;&lt;/div&gt;" style="text;html=1;align=center;verticalAlign=middle;resizable=0;points=[];autosize=1;strokeColor=none;fillColor=none;" vertex="1" parent="1">
          <mxGeometry x="1465" y="760" width="140" height="60" as="geometry" />
        </mxCell>
        <mxCell id="pBMPPKb8KP0F6P0kaboP-85" value="&lt;div&gt;Paquetes listos para&lt;/div&gt;&lt;div&gt;entrega&lt;br&gt;&lt;/div&gt;" style="text;html=1;align=center;verticalAlign=middle;resizable=0;points=[];autosize=1;strokeColor=none;fillColor=none;" vertex="1" parent="1">
          <mxGeometry x="1640" y="455" width="140" height="40" as="geometry" />
        </mxCell>
        <mxCell id="pBMPPKb8KP0F6P0kaboP-86" value="&lt;div&gt;Derivando paquetes a&lt;/div&gt;&lt;div&gt;asuntos legales&lt;br&gt;&lt;/div&gt;" style="text;html=1;align=center;verticalAlign=middle;resizable=0;points=[];autosize=1;strokeColor=none;fillColor=none;" vertex="1" parent="1">
          <mxGeometry x="1870" y="385" width="140" height="40" as="geometry" />
        </mxCell>
        <mxCell id="pBMPPKb8KP0F6P0kaboP-87" value="" style="edgeStyle=orthogonalEdgeStyle;rounded=0;orthogonalLoop=1;jettySize=auto;html=1;curved=0;" edge="1" parent="1" source="pBMPPKb8KP0F6P0kaboP-89">
          <mxGeometry relative="1" as="geometry">
            <mxPoint x="759.9999999999998" y="250" as="targetPoint" />
          </mxGeometry>
        </mxCell>
        <mxCell id="pBMPPKb8KP0F6P0kaboP-88" value="X3" style="edgeLabel;html=1;align=center;verticalAlign=middle;resizable=0;points=[];" vertex="1" connectable="0" parent="pBMPPKb8KP0F6P0kaboP-87">
          <mxGeometry x="-0.3356" y="-1" relative="1" as="geometry">
            <mxPoint y="-1" as="offset" />
          </mxGeometry>
        </mxCell>
        <mxCell id="pBMPPKb8KP0F6P0kaboP-89" value="" style="html=1;points=[[0,0,0,0,5],[0,1,0,0,-5],[1,0,0,0,5],[1,1,0,0,-5]];perimeter=orthogonalPerimeter;outlineConnect=0;targetShapes=umlLifeline;portConstraint=eastwest;newEdgeStyle={&quot;curved&quot;:0,&quot;rounded&quot;:0};fillColor=#000000;" vertex="1" parent="1">
          <mxGeometry x="680" y="210" width="10" height="80" as="geometry" />
        </mxCell>
        <mxCell id="pBMPPKb8KP0F6P0kaboP-90" value="" style="ellipse;whiteSpace=wrap;html=1;aspect=fixed;" vertex="1" parent="1">
          <mxGeometry x="760" y="20" width="80" height="80" as="geometry" />
        </mxCell>
        <mxCell id="pBMPPKb8KP0F6P0kaboP-91" value="" style="ellipse;whiteSpace=wrap;html=1;aspect=fixed;fillColor=#000000;" vertex="1" parent="1">
          <mxGeometry x="785" y="45" width="30" height="30" as="geometry" />
        </mxCell>
        <mxCell id="pBMPPKb8KP0F6P0kaboP-92" style="edgeStyle=orthogonalEdgeStyle;rounded=0;orthogonalLoop=1;jettySize=auto;html=1;entryX=0;entryY=0;entryDx=0;entryDy=5;entryPerimeter=0;exitX=0;exitY=0.5;exitDx=0;exitDy=0;" edge="1" parent="1" source="pBMPPKb8KP0F6P0kaboP-90" target="pBMPPKb8KP0F6P0kaboP-89">
          <mxGeometry relative="1" as="geometry">
            <Array as="points">
              <mxPoint x="660" y="60" />
              <mxPoint x="660" y="215" />
            </Array>
          </mxGeometry>
        </mxCell>
        <mxCell id="pBMPPKb8KP0F6P0kaboP-93" value="" style="edgeStyle=orthogonalEdgeStyle;rounded=0;orthogonalLoop=1;jettySize=auto;html=1;" edge="1" parent="1" source="pBMPPKb8KP0F6P0kaboP-94" target="pBMPPKb8KP0F6P0kaboP-96">
          <mxGeometry relative="1" as="geometry" />
        </mxCell>
        <mxCell id="pBMPPKb8KP0F6P0kaboP-94" value="" style="ellipse;whiteSpace=wrap;html=1;aspect=fixed;" vertex="1" parent="1">
          <mxGeometry x="760" y="210" width="80" height="80" as="geometry" />
        </mxCell>
        <mxCell id="pBMPPKb8KP0F6P0kaboP-95" value="" style="edgeStyle=orthogonalEdgeStyle;rounded=0;orthogonalLoop=1;jettySize=auto;html=1;curved=0;" edge="1" parent="1" source="pBMPPKb8KP0F6P0kaboP-96" target="pBMPPKb8KP0F6P0kaboP-98">
          <mxGeometry relative="1" as="geometry" />
        </mxCell>
        <mxCell id="pBMPPKb8KP0F6P0kaboP-96" value="" style="html=1;points=[[0,0,0,0,5],[0,1,0,0,-5],[1,0,0,0,5],[1,1,0,0,-5]];perimeter=orthogonalPerimeter;outlineConnect=0;targetShapes=umlLifeline;portConstraint=eastwest;newEdgeStyle={&quot;curved&quot;:0,&quot;rounded&quot;:0};fillColor=#000000;" vertex="1" parent="1">
          <mxGeometry x="900" y="210" width="10" height="80" as="geometry" />
        </mxCell>
        <mxCell id="pBMPPKb8KP0F6P0kaboP-97" value="" style="edgeStyle=orthogonalEdgeStyle;rounded=0;orthogonalLoop=1;jettySize=auto;html=1;" edge="1" parent="1" source="pBMPPKb8KP0F6P0kaboP-98" target="pBMPPKb8KP0F6P0kaboP-101">
          <mxGeometry relative="1" as="geometry" />
        </mxCell>
        <mxCell id="pBMPPKb8KP0F6P0kaboP-98" value="" style="ellipse;whiteSpace=wrap;html=1;aspect=fixed;" vertex="1" parent="1">
          <mxGeometry x="970" y="210" width="80" height="80" as="geometry" />
        </mxCell>
        <mxCell id="pBMPPKb8KP0F6P0kaboP-99" value="" style="edgeStyle=orthogonalEdgeStyle;rounded=0;orthogonalLoop=1;jettySize=auto;html=1;curved=0;" edge="1" parent="1" source="pBMPPKb8KP0F6P0kaboP-101" target="pBMPPKb8KP0F6P0kaboP-104">
          <mxGeometry relative="1" as="geometry" />
        </mxCell>
        <mxCell id="pBMPPKb8KP0F6P0kaboP-100" style="edgeStyle=orthogonalEdgeStyle;rounded=0;orthogonalLoop=1;jettySize=auto;html=1;curved=0;entryX=1;entryY=0.5;entryDx=0;entryDy=0;" edge="1" parent="1" source="pBMPPKb8KP0F6P0kaboP-101" target="pBMPPKb8KP0F6P0kaboP-109">
          <mxGeometry relative="1" as="geometry">
            <Array as="points">
              <mxPoint x="1150" y="220" />
              <mxPoint x="1150" y="140" />
            </Array>
          </mxGeometry>
        </mxCell>
        <mxCell id="pBMPPKb8KP0F6P0kaboP-101" value="" style="html=1;points=[[0,0,0,0,5],[0,1,0,0,-5],[1,0,0,0,5],[1,1,0,0,-5]];perimeter=orthogonalPerimeter;outlineConnect=0;targetShapes=umlLifeline;portConstraint=eastwest;newEdgeStyle={&quot;curved&quot;:0,&quot;rounded&quot;:0};fillColor=#000000;" vertex="1" parent="1">
          <mxGeometry x="1110" y="210" width="10" height="80" as="geometry" />
        </mxCell>
        <mxCell id="pBMPPKb8KP0F6P0kaboP-102" value="" style="edgeStyle=orthogonalEdgeStyle;rounded=0;orthogonalLoop=1;jettySize=auto;html=1;" edge="1" parent="1" source="pBMPPKb8KP0F6P0kaboP-104" target="pBMPPKb8KP0F6P0kaboP-108">
          <mxGeometry relative="1" as="geometry" />
        </mxCell>
        <mxCell id="pBMPPKb8KP0F6P0kaboP-103" value="X3" style="edgeLabel;html=1;align=center;verticalAlign=middle;resizable=0;points=[];" vertex="1" connectable="0" parent="pBMPPKb8KP0F6P0kaboP-102">
          <mxGeometry x="-0.2425" y="-1" relative="1" as="geometry">
            <mxPoint y="-1" as="offset" />
          </mxGeometry>
        </mxCell>
        <mxCell id="pBMPPKb8KP0F6P0kaboP-104" value="" style="ellipse;whiteSpace=wrap;html=1;aspect=fixed;" vertex="1" parent="1">
          <mxGeometry x="1190" y="210" width="80" height="80" as="geometry" />
        </mxCell>
        <mxCell id="pBMPPKb8KP0F6P0kaboP-105" style="edgeStyle=orthogonalEdgeStyle;rounded=0;orthogonalLoop=1;jettySize=auto;html=1;curved=0;entryX=1;entryY=0.5;entryDx=0;entryDy=0;exitX=1;exitY=0;exitDx=0;exitDy=5;exitPerimeter=0;" edge="1" parent="1" source="pBMPPKb8KP0F6P0kaboP-114" target="pBMPPKb8KP0F6P0kaboP-90">
          <mxGeometry relative="1" as="geometry">
            <Array as="points">
              <mxPoint x="1560" y="220" />
              <mxPoint x="1580" y="220" />
              <mxPoint x="1580" y="60" />
            </Array>
          </mxGeometry>
        </mxCell>
        <mxCell id="pBMPPKb8KP0F6P0kaboP-106" value="" style="edgeStyle=orthogonalEdgeStyle;rounded=0;orthogonalLoop=1;jettySize=auto;html=1;curved=0;" edge="1" parent="1" source="pBMPPKb8KP0F6P0kaboP-108" target="pBMPPKb8KP0F6P0kaboP-113">
          <mxGeometry relative="1" as="geometry" />
        </mxCell>
        <mxCell id="pBMPPKb8KP0F6P0kaboP-107" value="X3" style="edgeLabel;html=1;align=center;verticalAlign=middle;resizable=0;points=[];" vertex="1" connectable="0" parent="pBMPPKb8KP0F6P0kaboP-106">
          <mxGeometry x="-0.1044" y="1" relative="1" as="geometry">
            <mxPoint as="offset" />
          </mxGeometry>
        </mxCell>
        <mxCell id="pBMPPKb8KP0F6P0kaboP-108" value="" style="html=1;points=[[0,0,0,0,5],[0,1,0,0,-5],[1,0,0,0,5],[1,1,0,0,-5]];perimeter=orthogonalPerimeter;outlineConnect=0;targetShapes=umlLifeline;portConstraint=eastwest;newEdgeStyle={&quot;curved&quot;:0,&quot;rounded&quot;:0};fillColor=#000000;" vertex="1" parent="1">
          <mxGeometry x="1330" y="210" width="10" height="80" as="geometry" />
        </mxCell>
        <mxCell id="pBMPPKb8KP0F6P0kaboP-109" value="" style="ellipse;whiteSpace=wrap;html=1;aspect=fixed;" vertex="1" parent="1">
          <mxGeometry x="970" y="100" width="80" height="80" as="geometry" />
        </mxCell>
        <mxCell id="pBMPPKb8KP0F6P0kaboP-110" value="" style="ellipse;whiteSpace=wrap;html=1;aspect=fixed;fillColor=#000000;" vertex="1" parent="1">
          <mxGeometry x="995" y="125" width="30" height="30" as="geometry" />
        </mxCell>
        <mxCell id="pBMPPKb8KP0F6P0kaboP-111" style="edgeStyle=orthogonalEdgeStyle;rounded=0;orthogonalLoop=1;jettySize=auto;html=1;entryX=0;entryY=0;entryDx=0;entryDy=5;entryPerimeter=0;" edge="1" parent="1" target="pBMPPKb8KP0F6P0kaboP-96">
          <mxGeometry relative="1" as="geometry">
            <mxPoint x="969.9999999999998" y="140" as="sourcePoint" />
            <mxPoint x="859.9999999999998" y="175" as="targetPoint" />
            <Array as="points">
              <mxPoint x="880" y="140" />
              <mxPoint x="880" y="215" />
            </Array>
          </mxGeometry>
        </mxCell>
        <mxCell id="pBMPPKb8KP0F6P0kaboP-112" value="" style="edgeStyle=orthogonalEdgeStyle;rounded=0;orthogonalLoop=1;jettySize=auto;html=1;" edge="1" parent="1" source="pBMPPKb8KP0F6P0kaboP-113" target="pBMPPKb8KP0F6P0kaboP-114">
          <mxGeometry relative="1" as="geometry" />
        </mxCell>
        <mxCell id="pBMPPKb8KP0F6P0kaboP-113" value="" style="ellipse;whiteSpace=wrap;html=1;aspect=fixed;" vertex="1" parent="1">
          <mxGeometry x="1410" y="210" width="80" height="80" as="geometry" />
        </mxCell>
        <mxCell id="pBMPPKb8KP0F6P0kaboP-130" style="edgeStyle=orthogonalEdgeStyle;rounded=0;orthogonalLoop=1;jettySize=auto;html=1;curved=0;entryX=0.5;entryY=0;entryDx=0;entryDy=0;" edge="1" parent="1" source="pBMPPKb8KP0F6P0kaboP-114" target="pBMPPKb8KP0F6P0kaboP-71">
          <mxGeometry relative="1" as="geometry" />
        </mxCell>
        <mxCell id="pBMPPKb8KP0F6P0kaboP-114" value="" style="html=1;points=[[0,0,0,0,5],[0,1,0,0,-5],[1,0,0,0,5],[1,1,0,0,-5]];perimeter=orthogonalPerimeter;outlineConnect=0;targetShapes=umlLifeline;portConstraint=eastwest;newEdgeStyle={&quot;curved&quot;:0,&quot;rounded&quot;:0};fillColor=#000000;" vertex="1" parent="1">
          <mxGeometry x="1550" y="210" width="10" height="80" as="geometry" />
        </mxCell>
        <mxCell id="pBMPPKb8KP0F6P0kaboP-116" value="&lt;div&gt;Pedidos&lt;/div&gt;&lt;div&gt;solicitados&lt;/div&gt;&lt;div&gt;en fotocopiadora 1&lt;br&gt;&lt;/div&gt;" style="text;html=1;align=center;verticalAlign=middle;resizable=0;points=[];autosize=1;strokeColor=none;fillColor=none;" vertex="1" parent="1">
          <mxGeometry x="735" y="290" width="130" height="60" as="geometry" />
        </mxCell>
        <mxCell id="pBMPPKb8KP0F6P0kaboP-117" value="&lt;div&gt;Inicia impresion&lt;/div&gt;&lt;div&gt;en fotocopiadora&lt;/div&gt;&lt;div&gt;1&lt;br&gt;&lt;/div&gt;" style="text;html=1;align=center;verticalAlign=middle;resizable=0;points=[];autosize=1;strokeColor=none;fillColor=none;" vertex="1" parent="1">
          <mxGeometry x="845" y="290" width="120" height="60" as="geometry" />
        </mxCell>
        <mxCell id="pBMPPKb8KP0F6P0kaboP-118" value="&lt;div&gt;Imprimiendo en&lt;/div&gt;&lt;div&gt;fotocopiadora 1&lt;br&gt;&lt;/div&gt;" style="text;html=1;align=center;verticalAlign=middle;resizable=0;points=[];autosize=1;strokeColor=none;fillColor=none;" vertex="1" parent="1">
          <mxGeometry x="955" y="290" width="110" height="40" as="geometry" />
        </mxCell>
        <mxCell id="pBMPPKb8KP0F6P0kaboP-119" value="&lt;div&gt;Copia en FP 1 &lt;br&gt;&lt;/div&gt;&lt;div&gt;completada&lt;br&gt;&lt;/div&gt;" style="text;html=1;align=center;verticalAlign=middle;resizable=0;points=[];autosize=1;strokeColor=none;fillColor=none;" vertex="1" parent="1">
          <mxGeometry x="1065" y="290" width="100" height="40" as="geometry" />
        </mxCell>
        <mxCell id="pBMPPKb8KP0F6P0kaboP-120" value="Fotocopiadora 1 disponible" style="text;html=1;align=center;verticalAlign=middle;resizable=0;points=[];autosize=1;strokeColor=none;fillColor=none;" vertex="1" parent="1">
          <mxGeometry x="925" y="70" width="170" height="30" as="geometry" />
        </mxCell>
        <mxCell id="pBMPPKb8KP0F6P0kaboP-121" value="&lt;div&gt;Deposito de copias&lt;/div&gt;&lt;div&gt;de FP 1&lt;br&gt;&lt;/div&gt;" style="text;html=1;align=center;verticalAlign=middle;resizable=0;points=[];autosize=1;strokeColor=none;fillColor=none;" vertex="1" parent="1">
          <mxGeometry x="1165" y="290" width="130" height="40" as="geometry" />
        </mxCell>
        <mxCell id="pBMPPKb8KP0F6P0kaboP-122" value="&lt;div&gt;Inicio de&lt;/div&gt;&lt;div&gt;empaquetamiento en&lt;/div&gt;&lt;div&gt;oficina 1&lt;br&gt;&lt;/div&gt;" style="text;html=1;align=center;verticalAlign=middle;resizable=0;points=[];autosize=1;strokeColor=none;fillColor=none;" vertex="1" parent="1">
          <mxGeometry x="1265" y="160" width="140" height="60" as="geometry" />
        </mxCell>
        <mxCell id="pBMPPKb8KP0F6P0kaboP-123" value="&lt;div&gt;Empaquetando en&lt;/div&gt;&lt;div&gt;oficina 1&lt;br&gt;&lt;/div&gt;" style="text;html=1;align=center;verticalAlign=middle;resizable=0;points=[];autosize=1;strokeColor=none;fillColor=none;" vertex="1" parent="1">
          <mxGeometry x="1385" y="290" width="130" height="40" as="geometry" />
        </mxCell>
        <mxCell id="pBMPPKb8KP0F6P0kaboP-124" value="&lt;div&gt;Fin de&lt;/div&gt;&lt;div&gt;empaquetamiento en&lt;/div&gt;&lt;div&gt;oficina 1&lt;br&gt;&lt;/div&gt;" style="text;html=1;align=center;verticalAlign=middle;resizable=0;points=[];autosize=1;strokeColor=none;fillColor=none;" vertex="1" parent="1">
          <mxGeometry x="1485" y="290" width="140" height="60" as="geometry" />
        </mxCell>
        <mxCell id="pBMPPKb8KP0F6P0kaboP-125" value="&lt;div&gt;Empleado de&lt;/div&gt;&lt;div&gt;oficina 2 disponible&lt;br&gt;&lt;/div&gt;" style="text;html=1;align=center;verticalAlign=middle;resizable=0;points=[];autosize=1;strokeColor=none;fillColor=none;" vertex="1" parent="1">
          <mxGeometry x="715" y="565" width="130" height="40" as="geometry" />
        </mxCell>
        <mxCell id="pBMPPKb8KP0F6P0kaboP-126" value="&lt;div&gt;Empleado de&lt;/div&gt;&lt;div&gt;oficina 1 disponible&lt;br&gt;&lt;/div&gt;" style="text;html=1;align=center;verticalAlign=middle;resizable=0;points=[];autosize=1;strokeColor=none;fillColor=none;" vertex="1" parent="1">
          <mxGeometry x="735" y="100" width="130" height="40" as="geometry" />
        </mxCell>
        <mxCell id="pBMPPKb8KP0F6P0kaboP-127" value="&lt;div&gt;Llega un nuevo&lt;/div&gt;&lt;div&gt;documento&lt;br&gt;&lt;/div&gt;" style="text;html=1;align=center;verticalAlign=middle;resizable=0;points=[];autosize=1;strokeColor=none;fillColor=none;" vertex="1" parent="1">
          <mxGeometry x="220" y="450" width="110" height="40" as="geometry" />
        </mxCell>
        <mxCell id="pBMPPKb8KP0F6P0kaboP-128" value="&lt;div&gt;Deposito de documentos&lt;/div&gt;&lt;div&gt;a imprimir&lt;br&gt;&lt;/div&gt;" style="text;html=1;align=center;verticalAlign=middle;resizable=0;points=[];autosize=1;strokeColor=none;fillColor=none;" vertex="1" parent="1">
          <mxGeometry x="300" y="325" width="160" height="40" as="geometry" />
        </mxCell>
        <mxCell id="pBMPPKb8KP0F6P0kaboP-129" value="&lt;div&gt;Ingresun pedido de&lt;br&gt;&lt;/div&gt;&lt;div&gt;documento a&lt;/div&gt;&lt;div&gt;fotocopiadora 1&lt;br&gt;&lt;/div&gt;" style="text;html=1;align=center;verticalAlign=middle;resizable=0;points=[];autosize=1;strokeColor=none;fillColor=none;" vertex="1" parent="1">
          <mxGeometry x="620" y="290" width="130" height="60" as="geometry" />
        </mxCell>
      </root>
    </mxGraphModel>
  </diagram>
</mxfile>
